<svg xmlns="http://www.w3.org/2000/svg" viewBox="0 0 750 500"><g id="background-complete"><path d="M454.79,295.38c4.24-16.09,20.39-26,36.15-31.39s32.79-8,46.69-17.12c10-6.61,17.74-16.22,27.44-23.31,21.79-15.9,53.43-16.8,76.08-2.15s34.82,43.86,29.26,70.25Z" style="fill:#e0e0e0"></path><path d="M319.58,293.94c-.59-18-17.65-31.21-34.64-37.26s-35.65-7.86-51.23-16.94c-13-7.55-22.72-19.53-34.94-28.21a83.18,83.18,0,0,0-71.63-11.43s-38.69,14.54-42.63,50.45S83.32,294,83.32,294Z" style="fill:#e0e0e0"></path><path d="M82.62,294.68c-6.89,21.09,11.74,42.95,32.62,50.46s43.83,5.76,65.68,9.57c8.26,1.44,17.49,4.61,20.59,12.4,3.83,9.61-3.94,19.77-11.82,26.48s-17.27,14-17.79,24.28c-.45,8.94,6.45,16.93,14.61,20.61s17.38,3.95,26.33,4.17L386,446.84c56.6,1.37,113.23,2.74,169.82,1.29,11.42-.3,23.26-.81,33.43-6s18.19-16.44,15.93-27.63c-2.18-10.82-12.47-17.63-21-24.65s-16.52-18.14-12.16-28.28c4-9.33,15.75-11.77,25.65-14a153.79,153.79,0,0,0,53.09-23.1c9.17-6.28,20.88-20.13,18.77-31C668.15,286,659.2,284.8,652,282.5s-14.88-2-22.4-1.62c-188.07,8.74-358.93,5.06-547,13.8" style="fill:#f5f5f5"></path><circle cx="526.57" cy="104.03" r="41.65" transform="translate(80.66 402.81) rotate(-45)" style="fill:#ebebeb"></circle><path d="M635.26,117.55A23.83,23.83,0,0,0,598.9,93c-5.33,3.46-9.4,9.1-15.51,10.84-7,2-14.38-1.77-21.6-1a17.93,17.93,0,0,0-15.5,16Z" style="fill:#f5f5f5"></path><path d="M450.15,78.7a16.12,16.12,0,0,0-24.6-16.63c-3.6,2.35-6.36,6.16-10.49,7.34-4.72,1.34-9.73-1.2-14.62-.68A12.15,12.15,0,0,0,390,79.56Z" style="fill:#ebebeb"></path><path d="M229.22,126.58a3.6,3.6,0,0,1-.7.1c-.45.06-1.12.08-2,.22a39.88,39.88,0,0,0-7.14,1.57,45.52,45.52,0,0,0-20,13l-.81.88-.27.3-.16-.36a40.39,40.39,0,0,0-3.32-5.77,39.06,39.06,0,0,0-4-4.73,33.17,33.17,0,0,0-8.44-6.08,28.23,28.23,0,0,0-6.63-2.3c-1.62-.33-2.54-.41-2.53-.47a2.83,2.83,0,0,1,.67,0,17.54,17.54,0,0,1,1.9.25,26,26,0,0,1,6.74,2.17,32.34,32.34,0,0,1,8.62,6.06,39.38,39.38,0,0,1,4.06,4.78,41,41,0,0,1,3.37,5.85l-.43-.07.81-.89a44.81,44.81,0,0,1,20.27-13,36.67,36.67,0,0,1,7.23-1.42,19.86,19.86,0,0,1,2-.12A3.1,3.1,0,0,1,229.22,126.58Z" style="fill:#e0e0e0"></path><path d="M278.07,101.32c0,.05-.65-.29-1.84-.72A19.26,19.26,0,0,0,271,99.46a19.68,19.68,0,0,0-7.79,1,17.76,17.76,0,0,0-4.17,2.06,20.54,20.54,0,0,1-2.13,1.36,4,4,0,0,1-2.67.35c-1.81-.44-3.11-1.67-4.49-2.49a19.37,19.37,0,0,0-4.2-2,20.83,20.83,0,0,0-7.8-1,20.42,20.42,0,0,0-5.24,1c-1.21.38-1.85.69-1.87.63a2,2,0,0,1,.45-.25c.3-.14.75-.36,1.35-.58a19,19,0,0,1,5.29-1.14,20.58,20.58,0,0,1,8,1,19.65,19.65,0,0,1,4.33,2c1.41.85,2.7,2,4.32,2.41a3.51,3.51,0,0,0,2.34-.31,21.15,21.15,0,0,0,2.07-1.32,17.71,17.71,0,0,1,4.3-2.08,19.39,19.39,0,0,1,8-.89,18.09,18.09,0,0,1,5.25,1.32,11.9,11.9,0,0,1,1.32.64A2,2,0,0,1,278.07,101.32Z" style="fill:#e0e0e0"></path><path d="M144.22,127.62a18.94,18.94,0,0,0-5.79-.16,15.75,15.75,0,0,0-5.84,2.15,13.74,13.74,0,0,0-2.86,2.32,15.82,15.82,0,0,1-1.41,1.44,3.18,3.18,0,0,1-2,.75,12.49,12.49,0,0,1-3.94-1.13,15.47,15.47,0,0,0-3.6-.8,16.59,16.59,0,0,0-6.21.56,20.94,20.94,0,0,0-5.25,2.47s.1-.11.3-.28a8.75,8.75,0,0,1,.94-.7,15.16,15.16,0,0,1,3.9-1.85,16.58,16.58,0,0,1,6.37-.68,15.41,15.41,0,0,1,3.72.8,12.6,12.6,0,0,0,3.76,1.09A2.62,2.62,0,0,0,128,133a16.37,16.37,0,0,0,1.37-1.39,14,14,0,0,1,3-2.38,15.35,15.35,0,0,1,6-2.1,14.63,14.63,0,0,1,4.32.1,9.45,9.45,0,0,1,1.14.28C144.09,127.55,144.23,127.6,144.22,127.62Z" style="fill:#e0e0e0"></path></g><g id="background-simple"><path d="M392.67,195.65c-17.6,6.76-37.2-4.92-49.13-19.53s-19.75-32.53-33.5-45.43c-18-16.88-45.52-22.82-68.88-14.88s-41.55,29.43-45.53,53.78c-2.87,17.55,1.25,35.72,8.92,51.77,8.51,17.84,21.22,33.36,34.19,48.19a149.29,149.29,0,0,0,42.7,33.76c19.54,10.32,35.75,17.8,63.48,22.28,55.34,9,75.9,15.65,133.41-3.33,19.09-6.3,37-16,50.82-29,9.87-9.28,18-22.23,18-50.08,0-15.88-11.11-36-22.49-47.1-17.16-16.7-44.1-18-67.72-14.07s-40.38,15.31-64.27,13.6" style="fill:#f5f5f5"></path></g><g id="Floor"><path d="M674.88,453.86c0,.14-134.27.26-299.87.26S75.12,454,75.12,453.86s134.24-.26,299.89-.26S674.88,453.72,674.88,453.86Z" style="fill:#263238"></path></g><g id="Hearts"><path d="M402.3,87a2.83,2.83,0,0,0-3.69-1.45,4.85,4.85,0,0,0-2.88,2.88,4.94,4.94,0,0,0-1.15-4,2.86,2.86,0,0,0-3.95-.59,3.78,3.78,0,0,0-1.26,2.45,5.24,5.24,0,0,0,.26,2.79c1.34,2.94,2.3,3.66,4.39,6.06,3-1,3.92-1.25,6.53-3.14a5.19,5.19,0,0,0,1.61-2.29A3.8,3.8,0,0,0,402.3,87Z" style="fill:#FF725E"></path><path d="M382.93,73a1.61,1.61,0,0,0-2.23-.15,2.74,2.74,0,0,0-1.05,2A2.77,2.77,0,0,0,378.36,73a1.62,1.62,0,0,0-2.22.36,2.13,2.13,0,0,0-.25,1.53,2.91,2.91,0,0,0,.61,1.45,11.23,11.23,0,0,0,3.39,2.49,10.62,10.62,0,0,0,3-2.79,2.86,2.86,0,0,0,.47-1.5A2.12,2.12,0,0,0,382.93,73Z" style="fill:#FF725E"></path><path d="M377.43,91.16c-2.41-2.59-6.53-2.27-9,0s-3.52,4.86-3.65,8.55a11.22,11.22,0,0,0-5.81-7.41c-3-1.66-7.11-1-8.86,2.09a8.69,8.69,0,0,0-.59,6.28,11.89,11.89,0,0,0,2.91,5.67c5.33,5.11,8,5.81,14.45,9.11,5.45-4.73,7.23-6,11.17-12.18a12,12,0,0,0,1.47-6.2A8.71,8.71,0,0,0,377.43,91.16Z" style="fill:#FF725E"></path><path d="M402.3,87a2.83,2.83,0,0,0-3.69-1.45,4.85,4.85,0,0,0-2.88,2.88,4.94,4.94,0,0,0-1.15-4,2.86,2.86,0,0,0-3.95-.59,3.78,3.78,0,0,0-1.26,2.45,5.24,5.24,0,0,0,.26,2.79c1.34,2.94,2.3,3.66,4.39,6.06,3-1,3.92-1.25,6.53-3.14a5.19,5.19,0,0,0,1.61-2.29A3.8,3.8,0,0,0,402.3,87Z" style="fill:#fff;opacity:0.30000000000000004"></path><path d="M382.93,73a1.61,1.61,0,0,0-2.23-.15,2.74,2.74,0,0,0-1.05,2A2.77,2.77,0,0,0,378.36,73a1.62,1.62,0,0,0-2.22.36,2.13,2.13,0,0,0-.25,1.53,2.91,2.91,0,0,0,.61,1.45,11.23,11.23,0,0,0,3.39,2.49,10.62,10.62,0,0,0,3-2.79,2.86,2.86,0,0,0,.47-1.5A2.12,2.12,0,0,0,382.93,73Z" style="fill:#fff;opacity:0.7000000000000001"></path></g><g id="Stars"><polygon points="446.64 145.11 449.11 147.78 452.71 147.26 450.94 150.44 452.55 153.7 448.98 152.99 446.37 155.53 445.94 151.92 442.72 150.22 446.02 148.7 446.64 145.11" style="fill:#455a64"></polygon><polygon points="467.54 172.74 468.01 175.01 470.15 175.91 468.14 177.06 467.94 179.38 466.22 177.82 463.96 178.35 464.91 176.23 463.71 174.24 466.02 174.5 467.54 172.74" style="fill:#455a64"></polygon><polygon points="289.07 223.39 290.77 226.84 294.59 227.4 291.83 230.09 292.48 233.88 289.07 232.09 285.66 233.88 286.31 230.09 283.55 227.4 287.37 226.84 289.07 223.39" style="fill:#455a64"></polygon></g><g id="Railing"><polygon points="622.33 276.42 122.82 276.42 122.82 281.63 136.87 281.63 136.87 453.28 139 453.28 139 281.63 176.04 281.63 176.04 453.28 178.16 453.28 178.16 281.63 215.2 281.63 215.2 453.28 217.32 453.28 217.32 281.63 254.36 281.63 254.36 453.28 256.49 453.28 256.49 281.63 293.53 281.63 293.53 453.28 295.65 453.28 295.65 281.63 332.69 281.63 332.69 453.28 334.81 453.28 334.81 281.63 371.85 281.63 371.85 453.28 373.98 453.28 373.98 281.63 411.02 281.63 411.02 453.28 413.14 453.28 413.14 281.63 450.18 281.63 450.18 453.28 452.3 453.28 452.3 281.63 489.34 281.63 489.34 453.28 491.47 453.28 491.47 281.63 528.5 281.63 528.5 453.28 530.63 453.28 530.63 281.63 567.67 281.63 567.67 453.28 569.79 453.28 569.79 281.63 606.83 281.63 606.83 453.28 608.96 453.28 608.96 281.63 622.33 281.63 622.33 276.42" style="fill:#263238"></polygon></g><g id="character-2"><path d="M413.92,178.54l-19.27,1.26c-.44-2.21-1.54-10.84-1.54-10.84s-8.1-.07-9.35-8-2.53-26.3-2.53-26.3h0a27.83,27.83,0,0,1,28.17-.56l1.31.74Z" style="fill:#ffbe9d"></path><path d="M385.89,148.32a1.16,1.16,0,1,0-1.59.42A1.17,1.17,0,0,0,385.89,148.32Z" style="fill:#263238"></path><path d="M383.64,147.61c.16.09.73-.72,1.78-1.06s2,0,2.06-.21-.16-.27-.57-.42a2.65,2.65,0,0,0-1.7,0,2.69,2.69,0,0,0-1.37,1C383.6,147.29,383.56,147.57,383.64,147.61Z" style="fill:#263238"></path><path d="M395.29,145.74a1.16,1.16,0,1,0,1.64-.09A1.16,1.16,0,0,0,395.29,145.74Z" style="fill:#263238"></path><path d="M394.94,146.45c.16.1.74-.71,1.79-1s2,0,2.06-.17-.15-.28-.56-.44a2.74,2.74,0,0,0-3.08,1C394.9,146.13,394.86,146.41,394.94,146.45Z" style="fill:#263238"></path><path d="M391.78,155.37a5.66,5.66,0,0,0-1.82-.11c-.29,0-.52,0-.57-.18a1.58,1.58,0,0,1,.09-.84c.17-.77.35-1.54.54-2.35.73-3.33,1.19-6.06,1-6.1s-.9,2.64-1.64,6c-.16.81-.33,1.59-.49,2.35a1.86,1.86,0,0,0,0,1.21.76.76,0,0,0,.56.39,1.92,1.92,0,0,0,.49,0A5.19,5.19,0,0,0,391.78,155.37Z" style="fill:#263238"></path><path d="M395.5,156.06a45.57,45.57,0,0,1-5.13,2.34,3.05,3.05,0,0,0,3.74.68C396.35,157.86,395.5,156.06,395.5,156.06Z" style="fill:#fff"></path><path d="M393.08,168.85a18.58,18.58,0,0,0,9.9-4.44s-1.61,6.06-9.62,6.5Z" style="fill:#eb996e"></path><path d="M382.24,132.56a3,3,0,1,1,1.19-5.68,8.85,8.85,0,0,1-2.53-2.68,3,3,0,0,1,.28-3.45,3.35,3.35,0,0,1,3.43-.49c1.76.58,3.21,1.89,5,2.35s3.7,0,5.57-.07a9.92,9.92,0,0,1,5.9,1.5,6.65,6.65,0,0,1,3,5.15c2.57-.54,5.44-.82,7.63.63a7.5,7.5,0,0,1,3,5.68c.19,2.21-.55,4.38-1,6.54h0a4.75,4.75,0,0,1-.66,1.73l-.49,5.79-3.55.22-.77-11.91s-.06-5-4.33-4.24-9.73,6.15-18.22,5.62a9.19,9.19,0,0,1-4-.79,3.9,3.9,0,0,1-2.09-3.34A2.64,2.64,0,0,1,382.24,132.56Z" style="fill:#455a64"></path><path d="M411.84,142.52c.17-.08,5.84-1.3,5.87,5.51s-6.88,4.59-6.89,4.4S411.84,142.52,411.84,142.52Z" style="fill:#ffbe9d"></path><path d="M412.9,150s.12.08.32.17a1.21,1.21,0,0,0,.89,0,3,3,0,0,0,1.35-2.65,3.75,3.75,0,0,0-.34-1.7,1.37,1.37,0,0,0-.89-.9.59.59,0,0,0-.7.32c-.09.19,0,.33-.09.34s-.14-.11-.09-.39a.76.76,0,0,1,.27-.43.94.94,0,0,1,.66-.18,1.68,1.68,0,0,1,1.24,1.06,4.12,4.12,0,0,1,.42,1.9,3.09,3.09,0,0,1-1.73,2.95,1.27,1.27,0,0,1-1.08-.18C412.92,150.19,412.88,150,412.9,150Z" style="fill:#eb996e"></path><path d="M398.36,143.72a16.82,16.82,0,0,0-2.42-.47,17.62,17.62,0,0,0-2.43.38,3.58,3.58,0,0,1,4.85.09Z" style="fill:#263238"></path><path d="M387.21,144.63c0,.15-.88.16-1.93.22s-1.9.14-1.94,0,.81-.46,1.92-.51A3,3,0,0,1,387.21,144.63Z" style="fill:#263238"></path><path d="M411.56,452.14l-.07-7,18.66,0,.26,10.89-1.15.11c-5.11.47-26,2-29.49,1.09C395.91,456.25,411.56,452.14,411.56,452.14Z" style="fill:#FF725E"></path><g style="opacity:0.5"><path d="M423.67,456.16a6.43,6.43,0,0,1,2.23-4,6.27,6.27,0,0,1,4.29-1.51l.19,5.19Z" style="fill:#fff"></path></g><path d="M403.92,454.42s-5.47,1.79-4.75,2.68,21.92.12,31.24-1l0-.42-24.72,1.1S405,454.43,403.92,454.42Z" style="fill:#fff;opacity:0.5"></path><path d="M430.66,455.63l-.32.05-.91.08-3.37.27c-2.85.21-6.79.44-11.14.6s-8.3.22-11.15.22l-3.38,0-.92,0a1.14,1.14,0,0,1-.32,0,2,2,0,0,1,.32,0l.92,0,3.38-.06c2.85,0,6.79-.13,11.14-.29s8.29-.36,11.14-.53l3.37-.19.92-.05Z" style="fill:#263238"></path><path d="M405.66,457a7.14,7.14,0,0,0-.69-1.59,8,8,0,0,0-1.19-1.25,2.55,2.55,0,0,1,1.38,1.13A2.43,2.43,0,0,1,405.66,457Z" style="fill:#263238"></path><path d="M411,454.07c-.05,0-.32-.28-.61-.7s-.48-.78-.43-.81.33.27.62.69S411.09,454,411,454.07Z" style="fill:#263238"></path><path d="M412.52,453.22s-.34-.14-.67-.42-.57-.53-.53-.58.34.13.67.41S412.56,453.17,412.52,453.22Z" style="fill:#263238"></path><path d="M413.4,451.43a2.26,2.26,0,0,1-1,.16.49.49,0,1,1,0-.23A2.27,2.27,0,0,1,413.4,451.43Z" style="fill:#263238"></path><path d="M413.68,450.18a1.79,1.79,0,0,1-1.06.36,1.91,1.91,0,0,1-1.13-.11,5.39,5.39,0,0,1,1.1-.12A6.68,6.68,0,0,1,413.68,450.18Z" style="fill:#263238"></path><path d="M410.35,452.47a3.41,3.41,0,0,1-1.19,0,7,7,0,0,1-1.28-.23,3.52,3.52,0,0,1-.74-.27.7.7,0,0,1-.31-.36.5.5,0,0,1,.17-.49,2.19,2.19,0,0,1,2.73.55,2,2,0,0,1,.41.78.71.71,0,0,1,.05.32,3.73,3.73,0,0,0-.58-1,2.14,2.14,0,0,0-1.05-.62,1.86,1.86,0,0,0-1.42.14c-.18.15-.1.37.12.49a3.09,3.09,0,0,0,.68.26,7.91,7.91,0,0,0,1.24.28C409.9,452.45,410.35,452.43,410.35,452.47Z" style="fill:#263238"></path><path d="M410.05,452.54a1.14,1.14,0,0,1-.17-.82,2,2,0,0,1,.29-.89,1.21,1.21,0,0,1,1-.64.47.47,0,0,1,.39.54,1.28,1.28,0,0,1-.18.54,3.83,3.83,0,0,1-.54.74,1.79,1.79,0,0,1-.66.51s.23-.23.54-.62a3.54,3.54,0,0,0,.47-.73c.16-.26.25-.72-.05-.76s-.59.29-.76.54a1.8,1.8,0,0,0-.31.78A3.84,3.84,0,0,0,410.05,452.54Z" style="fill:#263238"></path><path d="M430.1,450.56s-.54,0-1.37.1a5.83,5.83,0,0,0-4.73,4c-.25.81-.26,1.34-.3,1.34s0-.13,0-.37a5,5,0,0,1,.17-1,5.74,5.74,0,0,1,1.78-2.84,5.57,5.57,0,0,1,4.1-1.34A1.47,1.47,0,0,1,430.1,450.56Z" style="fill:#263238"></path><path d="M421.27,454.43a15.13,15.13,0,0,1-5.42.25c0-.07,1.22,0,2.71-.11S421.26,454.37,421.27,454.43Z" style="fill:#263238"></path><path d="M424.91,454.3s-.09.26-.2.54-.18.53-.24.53-.11-.29,0-.62S424.87,454.25,424.91,454.3Z" style="fill:#263238"></path><path d="M426.22,452.54s-.07.24-.25.44-.37.33-.42.29.07-.24.25-.44S426.18,452.5,426.22,452.54Z" style="fill:#263238"></path><path d="M428.15,451.69c0,.06-.25.07-.52.17s-.46.26-.51.22.09-.3.43-.43S428.17,451.63,428.15,451.69Z" style="fill:#263238"></path><path d="M429.54,451.27c0,.06-.08.16-.23.22s-.3.07-.32,0,.08-.16.23-.22S429.51,451.21,429.54,451.27Z" style="fill:#263238"></path><path d="M394.28,447.69l-1.52-6.81L411,437l2.52,10.59-1.09.35c-4.91,1.52-25.05,7.39-28.63,7.21C379.83,455,394.28,447.69,394.28,447.69Z" style="fill:#FF725E"></path><g style="opacity:0.5"><path d="M407,449.1a6.46,6.46,0,0,1,1.34-4.42,6.29,6.29,0,0,1,3.89-2.37l1.26,5Z" style="fill:#fff"></path></g><path d="M387.28,451.51s-5,2.89-4.09,3.61,21.47-4.45,30.34-7.52l-.12-.39-24,6.22S388.34,451.29,387.28,451.51Z" style="fill:#fff;opacity:0.5"></path><path d="M413.69,447.13l-.31.11-.87.27-3.24,1c-2.74.79-6.55,1.83-10.77,2.9s-8.07,1.94-10.86,2.54l-3.31.68-.9.17-.32.05.31-.09.89-.21,3.3-.76c2.78-.64,6.61-1.54,10.84-2.6s8-2.08,10.77-2.84l3.26-.89.89-.24A1.24,1.24,0,0,1,413.69,447.13Z" style="fill:#263238"></path><path d="M389.53,453.71a4.86,4.86,0,0,0-2.43-2.38,3,3,0,0,1,2.43,2.38Z" style="fill:#263238"></path><path d="M394.17,449.68s-.37-.2-.74-.55-.63-.67-.59-.71.38.2.75.55S394.22,449.63,394.17,449.68Z" style="fill:#263238"></path><path d="M395.44,448.54c0,.06-.36-.06-.74-.26s-.67-.41-.64-.47.36.07.74.27S395.47,448.49,395.44,448.54Z" style="fill:#263238"></path><path d="M395.93,446.61c0,.06-.39.22-.91.35a2.12,2.12,0,0,1-1,.14c0-.06.39-.22.91-.35A2.13,2.13,0,0,1,395.93,446.61Z" style="fill:#263238"></path><path d="M396,445.33a1.89,1.89,0,0,1-1,.57,2,2,0,0,1-1.12.13,5.72,5.72,0,0,1,1.05-.35A6.11,6.11,0,0,1,396,445.33Z" style="fill:#263238"></path><path d="M393.17,448.26a3.67,3.67,0,0,1-1.16.28,6.73,6.73,0,0,1-1.3,0,3.18,3.18,0,0,1-.78-.11.67.67,0,0,1-.38-.29.47.47,0,0,1,.06-.51,2.2,2.2,0,0,1,2.78,0,2.12,2.12,0,0,1,.57.68.66.66,0,0,1,.11.31,3.08,3.08,0,0,0-.77-.86,2.22,2.22,0,0,0-1.15-.39,1.84,1.84,0,0,0-1.36.44c-.15.18,0,.38.21.45a3.48,3.48,0,0,0,.72.11,7.76,7.76,0,0,0,1.27,0C392.72,448.33,393.16,448.22,393.17,448.26Z" style="fill:#263238"></path><path d="M392.88,448.39a1.13,1.13,0,0,1-.33-.77,1.9,1.9,0,0,1,.1-.92,1.21,1.21,0,0,1,.82-.84.48.48,0,0,1,.49.45,1.32,1.32,0,0,1-.07.57,3.81,3.81,0,0,1-.37.83c-.27.45-.53.66-.55.64s.18-.27.41-.71a4.27,4.27,0,0,0,.31-.82c.1-.28.1-.75-.21-.73s-.52.41-.64.68a1.86,1.86,0,0,0-.13.84A4.13,4.13,0,0,0,392.88,448.39Z" style="fill:#263238"></path><path d="M412.08,442.29s-.53.08-1.32.38a5.8,5.8,0,0,0-3.77,4.94,13.29,13.29,0,0,0,0,1.38s-.06-.13-.1-.37a5.07,5.07,0,0,1,0-1,5.64,5.64,0,0,1,3.88-5.08,5,5,0,0,1,1-.23C412,442.27,412.08,442.27,412.08,442.29Z" style="fill:#263238"></path><path d="M404.26,447.91a11,11,0,0,1-2.57.92,10.61,10.61,0,0,1-2.69.45c0-.07,1.19-.29,2.63-.67S404.23,447.85,404.26,447.91Z" style="fill:#263238"></path><path d="M407.79,447s0,.27-.09.57-.06.56-.12.57-.16-.26-.1-.61S407.74,447,407.79,447Z" style="fill:#263238"></path><path d="M408.7,445c.06,0,0,.24-.15.48s-.3.4-.35.37,0-.25.15-.48S408.65,445,408.7,445Z" style="fill:#263238"></path><path d="M410.42,443.79c0,.07-.24.12-.48.28s-.4.35-.46.32,0-.31.34-.51S410.42,443.73,410.42,443.79Z" style="fill:#263238"></path><path d="M411.68,443.1s0,.16-.18.26-.27.13-.31.08.05-.17.18-.26S411.65,443,411.68,443.1Z" style="fill:#263238"></path><path d="M358.94,367.1c5.72,23.25,32.29,77.82,32.29,77.82l14.1-3.64c0,3.54,0,5.56,0,5.56l26.69.88,3.78-181.61L402,268.85h0l-20.56,1.58S354.17,347.7,358.94,367.1Zm28-7.78c.15-4.95,16.5-67.71,16.5-67.71.61,8.72,2.48,80,2,121.92C398.28,391.3,386.8,362.33,386.9,359.32Z" style="fill:#263238"></path><path d="M405.56,401.63a11.18,11.18,0,0,0-.11,1.76c0,1.22-.05,2.84-.09,4.8-.06,4.06-.1,9.66-.12,15.84s0,11.8,0,15.85c0,2,.05,3.58.07,4.8a13.82,13.82,0,0,0,.09,1.76,11.34,11.34,0,0,0,.11-1.76c0-1.22,0-2.84.09-4.81.06-4.05.11-9.65.12-15.84s0-11.79,0-15.84c0-2-.05-3.58-.07-4.8A11.64,11.64,0,0,0,405.56,401.63Z" style="fill:#455a64"></path><path d="M418.41,268.58a3,3,0,0,0,0,.94,11,11,0,0,0,.53,2.5,12.18,12.18,0,0,0,13.3,8.29,10.44,10.44,0,0,0,2.48-.63,3.2,3.2,0,0,0,.84-.41,26.12,26.12,0,0,1-3.36.68,12.34,12.34,0,0,1-12.92-8.06A25.46,25.46,0,0,1,418.41,268.58Z" style="fill:#455a64"></path><path d="M401,268.85a3.38,3.38,0,0,0-.11.95c0,.62-.06,1.5-.09,2.6-.06,2.19-.11,5.22-.13,8.56v4.72a6.8,6.8,0,0,0,.88,3.81,3.28,3.28,0,0,0,2.2,1.46,1.4,1.4,0,0,0,1-.13,6.18,6.18,0,0,1-.93-.07,3.21,3.21,0,0,1-1.93-1.46,6.78,6.78,0,0,1-.71-3.61c0-1.47,0-3.05,0-4.72,0-3.34,0-6.37,0-8.56,0-1.1,0-2-.07-2.6A3.06,3.06,0,0,0,401,268.85Z" style="fill:#455a64"></path><path d="M379.09,280.16a2.07,2.07,0,0,0,.73,0,10.94,10.94,0,0,0,2-.32,16.33,16.33,0,0,0,10.32-7.77,10.81,10.81,0,0,0,.85-1.81,2.21,2.21,0,0,0,.2-.71c-.09,0-.47.93-1.36,2.34a17.94,17.94,0,0,1-10.1,7.6C380.11,280,379.08,280.07,379.09,280.16Z" style="fill:#455a64"></path><path d="M433.06,226.29l.42,11.33,3.06,35.91-56.33-3.2.77-38.07c-.36-9.48.37-25-.61-32.83,0,0-2.27-21.41,13.09-23.9h0a34,34,0,0,0,20.52,0c2.22.28,6.16-.49,12.43,1.78,9.27,3.35,9.81,15.43,8.88,27.47Z" style="fill:#455a64"></path><path d="M413.21,200.07a5.68,5.68,0,0,1-.85.91l-.05.05-.06,0c-1.81-1.29-5.92-4.37-11-8.27h.3l-4.69,3.57-6.39,4.82-.16.12-.14-.13-7-6.12-2-1.78a4.32,4.32,0,0,1-.67-.68,4.67,4.67,0,0,1,.78.56l2.07,1.68,7.14,6h-.3l6.36-4.85,4.71-3.56.16-.11.15.11c5.08,3.94,9.11,7.11,10.82,8.53h-.11A6.73,6.73,0,0,1,413.21,200.07Z" style="fill:#263238"></path><path d="M410.71,208.1a4.33,4.33,0,0,1-.76-.54l-2-1.63L401,200.14h.29l-5.93,4.29c-1.85,1.33-3.62,2.6-5.26,3.76l-.16.12-.15-.14-6.94-6.7-2-2a3.66,3.66,0,0,1-.67-.75,4.7,4.7,0,0,1,.78.63l2.07,1.86,7.07,6.56-.31,0,5.23-3.78,6-4.26.16-.12.14.13,6.82,5.94,1.93,1.73A4.05,4.05,0,0,1,410.71,208.1Z" style="fill:#263238"></path><path d="M413.16,204.79l-1.77,36.88c-15.37.16-30.07-5.38-35.63-7.84-.53-.7-1.13-1.54-1.79-2.55a9.13,9.13,0,0,1-1.21-2.86,13.91,13.91,0,0,1-.52-3.84,1.2,1.2,0,0,0-2-1.1c-.73.8-1.16,4.05.06,7.69s-3.88.41-5.76-.73-7.87-4.4-8.68-4.1c-1.18.44-.93,1.79,1,2.89s7.39,4.79,6.74,5.75-10.14-5-10.14-5-1.82-1.6-2.61-.51c-1.43,2,9.14,7.55,10.15,8.05.71.35,0,1.43-.7,1s-9.33-6.15-10.8-4.17c-1.13,1.53,8.64,4.67,9.76,6.85s-7.17-3.14-8.18-1.64c-.38.56-.59,1,4.61,3.39a113.81,113.81,0,0,0,11.69,4l0,.05s56.45,24.26,63,2.12c2.21-7.47,3.56-41,3.56-41Z" style="fill:#ffbe9d"></path><path d="M420.19,176.06a10.63,10.63,0,0,0-3.31,2.74,13,13,0,0,0-2.13,4.14,36.08,36.08,0,0,0-1.23,5.65,77.61,77.61,0,0,0-.87,10.52c0,1.35,0,2.45,0,3.2a4.74,4.74,0,0,1,0,1.18,5.49,5.49,0,0,1-.16-1.17c-.07-.75-.14-1.85-.17-3.21a62.94,62.94,0,0,1,.73-10.6,34.38,34.38,0,0,1,1.28-5.72,12.91,12.91,0,0,1,2.3-4.23,8.57,8.57,0,0,1,2.5-2.07A3,3,0,0,1,420.19,176.06Z" style="fill:#263238"></path></g><g id="character-1"><path d="M360.14,351.67c-17.16,39.14-83.49,65.39-83.49,65.39l-8.47-13.7s56.57-33.11,62.35-51.4-4-50.75-4-50.75l17.6-3.64Z" style="fill:#b78876"></path><path d="M325.83,258.54c-.51-.07-9.35,15.14-6.24,27.07.32,1.19,1.68,4,3.27,8,7.59,19.07,24.73,63.83,24.39,69.8-.42,7.23,5,85.3,5,85.3l15.58.64L372.39,363l-2.3-83.27Z" style="fill:#b78876"></path><path d="M352.08,358a6.55,6.55,0,0,1,.24,2.14,15.72,15.72,0,0,1-.87,5.12,14.91,14.91,0,0,1-2.52,4.55,5.91,5.91,0,0,1-1.53,1.51,24.41,24.41,0,0,0,3.56-6.23A26.77,26.77,0,0,0,352.08,358Z" style="fill:#a36957"></path><path d="M276.54,418.13l3.22-1.78-8.66-14.59-6.36,3.43.44,1c2,4.21,10.48,21.3,12.8,23.58C280.57,432.28,276.54,418.13,276.54,418.13Z" style="fill:#FF725E"></path><g style="opacity:0.5"><path d="M267.79,410.51a5.87,5.87,0,0,0,2.13-3.62,5.71,5.71,0,0,0-.81-4.05L265,405.09Z" style="fill:#fff"></path></g><path d="M278.29,425.16s1.14,5.12.11,5-10.25-17.1-13.66-24.93l.34-.15,10.59,19.85S277.79,424.32,278.29,425.16Z" style="fill:#fff;opacity:0.5"></path><path d="M265,404.8l.12.27c.1.23.22.47.35.76l1.35,2.76c1.16,2.32,2.8,5.51,4.69,9s3.67,6.59,5,8.83L278,429l.44.71a1.19,1.19,0,0,0,.17.24s0-.09-.13-.26-.26-.46-.41-.73c-.42-.72-.92-1.62-1.52-2.67-1.29-2.25-3-5.37-4.94-8.85s-3.55-6.65-4.74-9c-.55-1.08-1-2-1.41-2.73l-.39-.74A1.16,1.16,0,0,0,265,404.8Z" style="fill:#263238"></path><path d="M275.43,425a4.59,4.59,0,0,1,3.1.16,2.29,2.29,0,0,0-1.52-.56A2.32,2.32,0,0,0,275.43,425Z" style="fill:#263238"></path><path d="M275.27,419.43a3.73,3.73,0,0,0,1.67.11,3.38,3.38,0,0,0-1.67-.11Z" style="fill:#263238"></path><path d="M275.26,417.88c0,.05.26.2.63.33s.68.19.7.14-.26-.2-.63-.33S275.27,417.82,275.26,417.88Z" style="fill:#263238"></path><path d="M276.24,416.36a2.06,2.06,0,0,0,.33.82c.22.44.45.76.5.74a2.09,2.09,0,0,0-.32-.83C276.52,416.66,276.29,416.33,276.24,416.36Z" style="fill:#263238"></path><path d="M277.09,415.56a1.63,1.63,0,0,0,.22,1,1.78,1.78,0,0,0,.6.83,4.33,4.33,0,0,0-.42-.91A5,5,0,0,0,277.09,415.56Z" style="fill:#263238"></path><path d="M276.84,419.22a3.29,3.29,0,0,0,.53.95,5.89,5.89,0,0,0,.77.9,3.24,3.24,0,0,0,.56.45.54.54,0,0,0,.42.07.42.42,0,0,0,.31-.35,2,2,0,0,0-1.69-1.88,1.88,1.88,0,0,0-.81,0,.64.64,0,0,0-.27.12,3.08,3.08,0,0,1,1,0,2,2,0,0,1,1,.53,1.64,1.64,0,0,1,.54,1.18c0,.21-.24.25-.43.13a3.35,3.35,0,0,1-.52-.41,7.42,7.42,0,0,1-.79-.84C277.07,419.57,276.87,419.21,276.84,419.22Z" style="fill:#263238"></path><path d="M276.93,419.5a1.1,1.1,0,0,0,.72-.25,1.78,1.78,0,0,0,.56-.64,1.09,1.09,0,0,0,.05-1.06.43.43,0,0,0-.6-.06,1.25,1.25,0,0,0-.34.4,3.65,3.65,0,0,0-.33.76,1.64,1.64,0,0,0-.09.76s.07-.28.23-.71a3.86,3.86,0,0,1,.35-.71c.13-.24.45-.53.62-.31a1,1,0,0,1-.06.84,1.69,1.69,0,0,1-.48.61A4.28,4.28,0,0,1,276.93,419.5Z" style="fill:#263238"></path><path d="M269.19,402.89s.27.41.56,1.12a5.3,5.3,0,0,1-1,5.57c-.51.57-.92.83-.9.86a1.14,1.14,0,0,0,.3-.16,4.9,4.9,0,0,0,.71-.6,5.3,5.3,0,0,0,1.4-2.71,5.23,5.23,0,0,0-.39-3,4.06,4.06,0,0,0-.46-.8C269.28,403,269.2,402.88,269.19,402.89Z" style="fill:#263238"></path><path d="M270.25,411.59a9.76,9.76,0,0,0,1,2.28,9.42,9.42,0,0,0,1.36,2.08c.05,0-.54-1-1.18-2.17S270.3,411.57,270.25,411.59Z" style="fill:#263238"></path><path d="M268.67,408.68c-.06,0-.16.19-.33.41s-.34.38-.31.43.28,0,.47-.31S268.72,408.69,268.67,408.68Z" style="fill:#263238"></path><path d="M269.44,406.84c-.06,0-.16.16-.23.4s-.09.45,0,.46.15-.16.23-.4S269.49,406.86,269.44,406.84Z" style="fill:#263238"></path><path d="M269.21,404.93s.06.24.1.5,0,.48.07.5.19-.22.14-.54S269.25,404.89,269.21,404.93Z" style="fill:#263238"></path><path d="M268.89,403.66c-.05,0-.08.13-.06.28s.08.26.13.26.09-.14.07-.29S269,403.65,268.89,403.66Z" style="fill:#263238"></path><path d="M351.53,138c-3.84,1.09-6,5.13-7.24,8.91s-2.22,7.94-5.17,10.62-7.92,3.77-9.26,7.62c-.79,2.28,0,4.84-.55,7.18-.7,2.92-3.35,4.93-6,6.29s-5.61,2.34-7.83,4.35c-4.71,4.24-4.68,12.18-1,17.37s10,7.9,16.32,8.67c5,.61,10.27.11,14.68-2.33,3.29-1.83,5.95-4.65,9.24-6.48,4-2.24,8.73-2.86,13-4.53s8.52-5,8.91-9.59c.31-3.59-1.8-6.89-2.52-10.42-1.47-7.14,2.84-14.67.83-21.68" style="fill:#263238"></path><path d="M345.5,183.86l19,3.17c.66-2.15,2.61-10.62,2.61-10.62s8.08.73,10.11-7,5.15-25.92,5.15-25.92h0a27.81,27.81,0,0,0-28-3.36l-1.38.59Z" style="fill:#b78876"></path><path d="M377.2,156.53a1.16,1.16,0,1,1,1.61.32A1.15,1.15,0,0,1,377.2,156.53Z" style="fill:#263238"></path><path d="M379.41,155.85c-.16.1-.77-.68-1.84-.95s-2,.09-2.07-.08.14-.29.54-.46a2.68,2.68,0,0,1,1.7-.1,2.63,2.63,0,0,1,1.42.92C379.43,155.53,379.48,155.8,379.41,155.85Z" style="fill:#263238"></path><path d="M367.22,153.1a1.16,1.16,0,0,1-1.66,1.63,1.17,1.17,0,0,1,0-1.65A1.16,1.16,0,0,1,367.22,153.1Z" style="fill:#263238"></path><path d="M367.56,153.9c-.16.1-.77-.67-1.84-1s-2,.09-2.07-.08.14-.28.54-.46a2.72,2.72,0,0,1,3.12.82C367.58,153.58,367.63,153.86,367.56,153.9Z" style="fill:#263238"></path><path d="M369.84,163a5.09,5.09,0,0,1,1.82.06c.29,0,.52,0,.58-.11a1.58,1.58,0,0,0,0-.85c-.1-.78-.2-1.56-.3-2.39-.4-3.39-.58-6.15-.41-6.17s.64,2.71,1,6.1c.09.83.17,1.61.26,2.39a1.85,1.85,0,0,1-.14,1.2.74.74,0,0,1-.6.33,1.73,1.73,0,0,1-.49-.06A5.6,5.6,0,0,1,369.84,163Z" style="fill:#263238"></path><path d="M366.07,163.33a37.92,37.92,0,0,1,4.86,2.84,3,3,0,0,1-3.78.3C365,165,366.07,163.33,366.07,163.33Z" style="fill:#fff"></path><path d="M367.19,176.3a18.64,18.64,0,0,1-9.4-5.41s1,6.19,8.92,7.43Z" style="fill:#a36957"></path><path d="M361.35,132.07c-3.35.93,1.28,9.49,4.11,10.34,1.87.57,4.28.28,5.39,1.89.91,1.31.4,3.29,1.42,4.53,1.39,1.68,4.42.7,6,2.19a5,5,0,0,1,1.15,2.32,4.7,4.7,0,0,0,1.2,2.29,1.65,1.65,0,0,0,2.33,0S385.32,125.4,361.35,132.07Z" style="fill:#263238"></path><path d="M343.83,182.54c4.15.66,8.93-1.71,9.23-5.9.22-3-1.3-6-.62-8.85.89-3.74,5.24-6.29,5.13-10.13-.05-1.95-1.28-3.65-1.74-5.55a9.14,9.14,0,0,1,1.68-7.22,19.6,19.6,0,0,1,5.68-5,5.78,5.78,0,0,0,1.58-1.27,1.84,1.84,0,0,0,.29-1.91c-.3-.57-1.95-4-2.57-4.15-4.29-1.28-8.54,1.58-11.95,4.48s-4.33,8.29-6.08,14.8" style="fill:#263238"></path><path d="M343.83,182.54s.76.08,2.14,0a14.29,14.29,0,0,0,2.47-.32,7.42,7.42,0,0,0,3-1.29,5.32,5.32,0,0,0,2-3.22,7.75,7.75,0,0,0-1.08-4.31,14.8,14.8,0,0,1-.93-2.37,4.84,4.84,0,0,1,0-2.72A5.55,5.55,0,0,1,353,166a18,18,0,0,1,2.23-1.74c1.52-1.08,3.09-2.13,3.88-3.65a6.42,6.42,0,0,0,.23-4.81c-.41-1.56-1-3-1.44-4.4a10.48,10.48,0,0,1-.57-4.05,8.34,8.34,0,0,1,2.55-5.25,7.45,7.45,0,0,1,1.28-1,2.26,2.26,0,0,1,.51-.24,13.51,13.51,0,0,0-1.65,1.35,8.32,8.32,0,0,0-2.33,5.13,10.48,10.48,0,0,0,.62,3.89c.43,1.38,1.06,2.8,1.5,4.4a9.57,9.57,0,0,1,.39,2.54,5.83,5.83,0,0,1-.64,2.63c-.87,1.69-2.52,2.77-4,3.84s-3.08,2.18-3.6,3.81.21,3.29.87,4.74a8.13,8.13,0,0,1,1.07,4.58,5.6,5.6,0,0,1-2.23,3.44,7.61,7.61,0,0,1-3.12,1.29,13.06,13.06,0,0,1-2.53.23,11.56,11.56,0,0,1-1.6-.11A2,2,0,0,1,343.83,182.54Z" style="fill:#263238"></path><path d="M368,150.8a65,65,0,0,1-5.58-1.24A9.09,9.09,0,0,1,368,150.8Z" style="fill:#263238"></path><path d="M379,153c0,.14-.95,0-2-.27s-1.92-.64-1.89-.78a8.21,8.21,0,0,1,3.92,1Z" style="fill:#263238"></path><path d="M368.67,448.89l-.06-3.67-16.95.8,0,7.23,1.05.06c4.67.21,23.73.73,26.84-.25C383.06,452,368.67,448.89,368.67,448.89Z" style="fill:#FF725E"></path><g style="opacity:0.5"><path d="M357.84,453.05a5.89,5.89,0,0,0-2.2-3.58,5.71,5.71,0,0,0-4-1.18l.05,4.72Z" style="fill:#fff"></path></g><path d="M375.71,450.64s5,1.4,4.42,2.24-19.9,1-28.42.37l0-.38,22.5,0S374.72,450.7,375.71,450.64Z" style="fill:#fff;opacity:0.5"></path><path d="M351.47,452.87l.29,0,.84.05,3.07.1c2.59.06,6.18.11,10.14.07s7.54-.15,10.13-.26l3.07-.16.84-.06a1.36,1.36,0,0,0,.29,0h-.29l-.84,0-3.07.09c-2.59.08-6.18.17-10.14.21s-7.54,0-10.13,0l-3.07,0h-.84Z" style="fill:#263238"></path><path d="M374.23,453.1a7.9,7.9,0,0,1,.56-1.47,6.62,6.62,0,0,1,1-1.19,2.25,2.25,0,0,0-1.21,1.08A2.29,2.29,0,0,0,374.23,453.1Z" style="fill:#263238"></path><path d="M369.22,450.62s.29-.26.53-.65.4-.74.35-.76-.28.26-.52.65A1.86,1.86,0,0,0,369.22,450.62Z" style="fill:#263238"></path><path d="M367.85,449.91s.3-.14.59-.4.49-.52.45-.56-.3.14-.59.41S367.81,449.87,367.85,449.91Z" style="fill:#263238"></path><path d="M367,448.33a3.92,3.92,0,0,0,1.76,0,3.58,3.58,0,0,0-1.76,0Z" style="fill:#263238"></path><path d="M366.66,447.2a1.73,1.73,0,0,0,1,.28,1.62,1.62,0,0,0,1-.15,6.08,6.08,0,0,0-1-.05A6,6,0,0,0,366.66,447.2Z" style="fill:#263238"></path><path d="M369.78,449.14a3.22,3.22,0,0,0,1.09,0,6,6,0,0,0,1.15-.26,3.61,3.61,0,0,0,.66-.28.6.6,0,0,0,.26-.34.43.43,0,0,0-.16-.44,2,2,0,0,0-2.46.61,2.13,2.13,0,0,0-.35.73.59.59,0,0,0,0,.29,3.39,3.39,0,0,1,.48-.93,2,2,0,0,1,.92-.61,1.68,1.68,0,0,1,1.3.08c.17.12.11.32-.08.44a3.33,3.33,0,0,1-.61.27,7.9,7.9,0,0,1-1.12.3C370.19,449.1,369.78,449.11,369.78,449.14Z" style="fill:#263238"></path><path d="M370.06,449.19a1,1,0,0,0,.12-.75,1.81,1.81,0,0,0-.3-.79,1.12,1.12,0,0,0-.91-.55.44.44,0,0,0-.33.51,1.15,1.15,0,0,0,.19.48,3,3,0,0,0,.52.65c.34.33.61.46.62.43s-.22-.19-.52-.53A3.93,3.93,0,0,1,369,448c-.15-.23-.26-.64,0-.7s.56.24.72.46a1.75,1.75,0,0,1,.32.7A3,3,0,0,1,370.06,449.19Z" style="fill:#263238"></path><path d="M351.77,448.24s.48-.05,1.25,0a5.33,5.33,0,0,1,4.46,3.48c.26.72.29,1.21.33,1.21a1,1,0,0,0,0-.34,4.35,4.35,0,0,0-.2-.91,5.09,5.09,0,0,0-4.58-3.58,4.31,4.31,0,0,0-.93,0A.92.92,0,0,0,351.77,448.24Z" style="fill:#263238"></path><path d="M360,451.38a8.78,8.78,0,0,0,2.46.22,9.82,9.82,0,0,0,2.47-.22c0-.06-1.11,0-2.47,0S360,451.32,360,451.38Z" style="fill:#263238"></path><path d="M356.63,451.41s.1.24.21.49.18.47.24.47.08-.27-.05-.56S356.67,451.37,356.63,451.41Z" style="fill:#263238"></path><path d="M355.37,449.87s.07.22.25.39.35.29.39.25-.07-.22-.25-.39S355.41,449.83,355.37,449.87Z" style="fill:#263238"></path><path d="M353.58,449.18c0,.06.23.05.48.14s.43.21.48.18-.1-.27-.41-.38S353.56,449.13,353.58,449.18Z" style="fill:#263238"></path><path d="M352.3,448.86c0,.05.08.14.22.19s.27.05.29,0-.07-.14-.22-.19S352.32,448.81,352.3,448.86Z" style="fill:#263238"></path><path d="M400.67,340.09c-17.25-18.9-24.77-44.26-27.38-73.17h0c.74-14,2.24-24.79,2.24-31.13l2.09-6.26a39.44,39.44,0,0,0,.51-23.65c-.13-.46-.27-.93-.4-1.42l-3.54-12.91a10.72,10.72,0,0,0-9.54-8.66,5.11,5.11,0,0,0-1.17,0l-19.19-.32-.46,0a17.63,17.63,0,0,0-18.19,22.66l3,10s6.68,22.62,5.13,24.55c-10.87,13.58-14.34,30.69-14.29,31.24h0a125.81,125.81,0,0,0-2,16.65c-1.14,15.26.32,33.83-.06,49.13-.11,4.47-.41,9,.53,13.38s3.33,8.68,7.28,10.77c7.16,3.78,15.67-.88,23.73-1.62,8.82-.81,17.28,3.2,25.47,6.57s17.46,6.22,25.76,3.13c4.76-1.77,8.93-5.81,9.64-10.83C410.85,351.25,405.4,345.27,400.67,340.09Z" style="fill:#FF725E"></path><path d="M333.34,214.55a1.88,1.88,0,0,1,.39-.31l1.19-.83,4.43-2.95c3.75-2.48,9-5.88,14.75-9.62l-.08.36-.24-.38-5.21-8.37c-.8-1.28-1.55-2.51-2.26-3.66a27.88,27.88,0,0,0-2.08-3.08,7.7,7.7,0,0,0-2.27-2,5.61,5.61,0,0,0-2.17-.68,5.35,5.35,0,0,0-1.93.24,1.35,1.35,0,0,1,.47-.23,4.15,4.15,0,0,1,1.48-.21,5.52,5.52,0,0,1,2.28.62,7.84,7.84,0,0,1,2.42,2,27.82,27.82,0,0,1,2.16,3.09L349,192.2c1.61,2.57,3.38,5.39,5.24,8.34l.24.38.13.22-.21.14c-5.79,3.74-11,7.08-14.84,9.48L335,213.58l-1.24.74C333.5,214.49,333.35,214.57,333.34,214.55Z" style="fill:#263238"></path><g style="opacity:0.2"><path d="M333.14,214.68a69,69,0,0,0,11.38,22.78c2,2.61,4.65,5.3,7.92,5.13,1.71-.09,3.57-1.56,3.09-3.19a3.84,3.84,0,0,0-.94-1.42l-20.34-22.5"></path></g><path d="M330.53,305.08s.19-.11.55-.08a2.32,2.32,0,0,1,1.38.69,2.6,2.6,0,0,1,.76,2.16,2.55,2.55,0,0,1-4.6.8,2.57,2.57,0,0,1,0-2.3,2.25,2.25,0,0,1,1.06-1.1c.33-.16.54-.14.55-.12A2.79,2.79,0,0,0,329,306.5a2.22,2.22,0,0,0,.09,1.91,2.09,2.09,0,0,0,3.7-.64,2.23,2.23,0,0,0-.55-1.83A2.76,2.76,0,0,0,330.53,305.08Z" style="fill:#263238"></path><path d="M349.28,281.13s.19-.11.55-.08a2.32,2.32,0,0,1,1.38.69,2.6,2.6,0,0,1,.76,2.16,2.55,2.55,0,0,1-4.6.8,2.55,2.55,0,0,1,0-2.29,2.33,2.33,0,0,1,1.06-1.11c.33-.16.54-.14.55-.12a2.79,2.79,0,0,0-1.27,1.37,2.22,2.22,0,0,0,.09,1.91,2.09,2.09,0,0,0,3.7-.64,2.23,2.23,0,0,0-.55-1.83A2.76,2.76,0,0,0,349.28,281.13Z" style="fill:#263238"></path><path d="M364.12,260.15s.19-.11.55-.08a2.34,2.34,0,0,1,1.37.69,2.59,2.59,0,0,1,.77,2.17,2.41,2.41,0,0,1-2,1.89,2.38,2.38,0,0,1-2.56-1.1,2.55,2.55,0,0,1,0-2.29,2.29,2.29,0,0,1,1.06-1.11.87.87,0,0,1,.55-.12,2.83,2.83,0,0,0-1.28,1.37,2.32,2.32,0,0,0,.09,1.92,2,2,0,0,0,2.06.82,1.93,1.93,0,0,0,1.65-1.47,2.28,2.28,0,0,0-.55-1.83A2.79,2.79,0,0,0,364.12,260.15Z" style="fill:#263238"></path><path d="M367.49,202.62s.18-.11.55-.08a2.3,2.3,0,0,1,1.37.69,2.54,2.54,0,0,1,.76,2.16,2.54,2.54,0,0,1-4.59.8,2.52,2.52,0,0,1,0-2.29,2.29,2.29,0,0,1,1.06-1.11c.33-.16.54-.14.54-.12A2.89,2.89,0,0,0,365.9,204,2.3,2.3,0,0,0,366,206a2.1,2.1,0,0,0,3.71-.64,2.27,2.27,0,0,0-.56-1.83A2.75,2.75,0,0,0,367.49,202.62Z" style="fill:#263238"></path><path d="M335.61,196s.19-.11.55-.07a2.3,2.3,0,0,1,1.38.68,2.62,2.62,0,0,1,.76,2.17,2.55,2.55,0,0,1-4.6.79,2.55,2.55,0,0,1,0-2.29,2.33,2.33,0,0,1,1.06-1.11c.33-.15.54-.14.55-.11a2.74,2.74,0,0,0-1.27,1.37,2.22,2.22,0,0,0,.09,1.91,2.1,2.1,0,0,0,3.7-.64,2.23,2.23,0,0,0-.55-1.83A2.89,2.89,0,0,0,335.61,196Z" style="fill:#263238"></path><path d="M374.11,303.28s.19-.1.56-.07a2.33,2.33,0,0,1,1.37.69,2.6,2.6,0,0,1,.76,2.16,2.55,2.55,0,0,1-4.6.8,2.61,2.61,0,0,1,0-2.3,2.33,2.33,0,0,1,1.06-1.11c.34-.15.55-.13.55-.11a2.79,2.79,0,0,0-1.27,1.37,2.26,2.26,0,0,0,.09,1.91,1.93,1.93,0,0,0,2.05.83,2,2,0,0,0,1.66-1.47,2.27,2.27,0,0,0-.56-1.83A2.89,2.89,0,0,0,374.11,303.28Z" style="fill:#263238"></path><path d="M336.94,259.38s.19-.11.55-.07a2.3,2.3,0,0,1,1.38.68,2.62,2.62,0,0,1,.76,2.17,2.55,2.55,0,0,1-4.6.79,2.55,2.55,0,0,1,0-2.29,2.33,2.33,0,0,1,1.06-1.11c.33-.15.54-.14.55-.11a2.74,2.74,0,0,0-1.27,1.37,2.22,2.22,0,0,0,.09,1.91,2.1,2.1,0,0,0,3.7-.64,2.23,2.23,0,0,0-.55-1.83A2.89,2.89,0,0,0,336.94,259.38Z" style="fill:#263238"></path><path d="M358.86,319.15s.19-.11.56-.08a2.33,2.33,0,0,1,1.37.69,2.57,2.57,0,0,1,.76,2.16,2.55,2.55,0,0,1-4.6.8,2.58,2.58,0,0,1,0-2.29,2.33,2.33,0,0,1,1.06-1.11c.34-.16.55-.14.55-.12a2.79,2.79,0,0,0-1.27,1.37,2.26,2.26,0,0,0,.09,1.91,2.1,2.1,0,0,0,3.71-.64,2.28,2.28,0,0,0-.56-1.83A2.74,2.74,0,0,0,358.86,319.15Z" style="fill:#263238"></path><path d="M381.43,337s.19-.11.56-.07a2.3,2.3,0,0,1,1.37.68,2.55,2.55,0,0,1,.76,2.17,2.55,2.55,0,0,1-4.6.79,2.58,2.58,0,0,1,0-2.29,2.37,2.37,0,0,1,1.06-1.11c.34-.15.55-.14.55-.12a2.85,2.85,0,0,0-1.27,1.38,2.26,2.26,0,0,0,.09,1.91,2.11,2.11,0,0,0,3.71-.65,2.29,2.29,0,0,0-.56-1.83A2.89,2.89,0,0,0,381.43,337Z" style="fill:#263238"></path><path d="M338.47,337.83s.19-.11.56-.07a2.3,2.3,0,0,1,1.37.68,2.55,2.55,0,0,1,.76,2.17,2.55,2.55,0,0,1-4.6.79,2.58,2.58,0,0,1,0-2.29,2.37,2.37,0,0,1,1.06-1.11c.34-.15.55-.14.55-.12a2.85,2.85,0,0,0-1.27,1.38,2.26,2.26,0,0,0,.09,1.91,2.11,2.11,0,0,0,3.71-.65,2.29,2.29,0,0,0-.56-1.83A2.81,2.81,0,0,0,338.47,337.83Z" style="fill:#263238"></path><path d="M433.39,224.9c-.27-.43-2.74,1-4.62,2.23-.06-.12-.11-.23-.17-.34,3.38-2.34,5.19-4.48,4.73-5.21-.36-.56-4.48,2.11-6.11,3.2l-.07-.14c5.82-5.73,5.69-6.21,5.72-7.7,0-1.28-5.39,3.67-7.17,5.33a1.51,1.51,0,0,0-.25-.3c-.78-.78,3.61-5.18,5.19-6.56s1.55-2.66.37-2.85c-.8-.13-5.75,4-7.28,5.38s-5.68,5.31-5.21,1.72-.52-6.52-1.34-7.13-2,.31-1.63,1.38a13.17,13.17,0,0,1,.22,3.65,8.75,8.75,0,0,1-.6,2.86c-.43,1.06-.84,2-1.2,2.69-4.7,3.29-18.28,12.08-32.54,14.72-2.57.48-28.33-35.89-28.33-35.89l-19,12.51s13.57,17.63,31,36.8c14.6,16.05,53.55-13.2,62-19.91l.45-.29a3.9,3.9,0,0,0,.89-.79l.31-.25h0C432.09,227.72,433.84,225.61,433.39,224.9Z" style="fill:#b78876"></path></g></svg>
